<svg width="24" height="24" viewBox="0 0 24 24" fill="none" xmlns="http://www.w3.org/2000/svg">
<path d="M14.25 12.375H12.375V14.25C12.375 14.4563 12.2063 14.625 12 14.625C11.7938 14.625 11.625 14.4563 11.625 14.25V12.375H9.75C9.54375 12.375 9.375 12.2063 9.375 12C9.375 11.7938 9.54375 11.625 9.75 11.625H11.625V9.75C11.625 9.54375 11.7938 9.375 12 9.375C12.2063 9.375 12.375 9.54375 12.375 9.75V11.625H14.25C14.4563 11.625 14.625 11.7938 14.625 12C14.625 12.2063 14.4563 12.375 14.25 12.375Z" fill="#475569"/>
<rect x="3.375" y="3.375" width="17.25" height="17.25" rx="1.875" stroke="#475569" stroke-width="0.75"/>
</svg>
