<svg width="40" height="40" viewBox="0 0 40 40" fill="none" xmlns="http://www.w3.org/2000/svg">
<path fill-rule="evenodd" clip-rule="evenodd" d="M30.4687 0C36.25 0 40 3.74994 40 9.53112V30.4683C40 36.2494 36.25 39.9994 30.4687 39.9994H9.53127C3.75 39.9994 0 36.2494 0 30.4683V9.53112C0 3.74994 3.75 0 9.53127 0H30.4687Z" fill="white"/>
<path fill-rule="evenodd" clip-rule="evenodd" d="M20.9238 39.8018V24.3091H15.8906V18.7379H20.9238V14.6527C20.9238 14.6527 20.5617 6.16113 27.9104 6.16113H33.8548V11.8374H30.1508C30.1508 11.8374 27.4248 11.6895 27.3951 14.5029V18.7379H33.3875L32.5233 24.3091H27.3358V39.9998H20.9238V39.8018Z" fill="#0F172A"/>
</svg>
