<svg width="40" height="40" viewBox="0 0 40 40" fill="none" xmlns="http://www.w3.org/2000/svg">
<path fill-rule="evenodd" clip-rule="evenodd" d="M30.4687 0C36.25 0 40 3.75 40 9.53127V30.4687C40 36.25 36.25 40 30.4687 40H9.53127C3.75 40 0 36.25 0 30.4687V9.53127C0 3.75 3.75 0 9.53127 0H30.4687Z" fill="white"/>
<path fill-rule="evenodd" clip-rule="evenodd" d="M30.4687 0C36.25 0 40 3.75 40 9.53127V30.4687C40 36.25 36.25 40 30.4687 40H9.53127C3.75 40 0 36.25 0 30.4687V9.53127C0 3.75 3.75 0 9.53127 0H30.4687Z" fill="white"/>
<path fill-rule="evenodd" clip-rule="evenodd" d="M14.1905 29.6809L15.8371 22.7817C15.8371 22.7817 16.0038 21.9484 15.5781 21.2045C15.5781 21.2045 14.6301 18.8349 16.5035 16.8259C16.5035 16.8259 18.0381 15.0879 20.0018 16.3972C20.0018 16.3972 21.1218 17.2784 20.6705 18.9484L19.3371 23.1151C19.3371 23.1151 18.5228 26.2817 21.5365 26.5539C21.5365 26.5539 24.7191 26.9825 26.2538 22.6715C27.7885 18.3609 26.0038 15.6151 26.0038 15.6151C26.0038 15.6151 23.7085 11.5853 18.5228 12.4335C13.3371 13.2817 12.6815 18.2289 12.6815 18.2289C12.6815 18.2289 12.2921 21.2755 13.9185 23.4972L13.1398 26.1545C13.1398 26.1545 9.17047 23.6151 9.33714 19.0535C9.33714 19.0535 9.5038 11.4484 17.2825 9.61506C17.2825 9.61506 24.3282 7.84073 28.4987 13.5007C30.832 16.6673 30.6654 20.1151 30.1654 22.6715C29.6654 25.228 27.7768 26.8645 27.7768 26.8645C27.7768 26.8645 22.6705 32.2817 18.2285 27.5009L17.2825 31.1452C17.2825 31.1452 16.1725 35.0937 14.6705 36.115L13.9798 35.9383C13.9798 35.9383 13.6361 31.5399 14.1905 29.6809Z" fill="#0F172A"/>
</svg>
