<svg width="12" height="12" viewBox="0 0 12 12" fill="none" xmlns="http://www.w3.org/2000/svg">
<path fill-rule="evenodd" clip-rule="evenodd" d="M6.71496 0.447376L8.22262 3.70505L11.31 4.04092C11.6204 4.08522 11.877 4.31079 11.9666 4.61811C12.0562 4.92544 11.9622 5.258 11.7263 5.46906L9.27132 7.54163L10.0318 11.0232C10.0916 11.3375 9.96705 11.6586 9.71288 11.8453C9.45871 12.032 9.12154 12.0501 8.84971 11.8916L5.99982 10.1194L3.1526 11.8916C2.88076 12.0501 2.54359 12.032 2.28942 11.8453C2.03525 11.6586 1.91067 11.3375 1.97048 11.0232L2.73098 7.54163L0.273356 5.46906C0.0372661 5.25763 -0.0563708 4.92456 0.0338322 4.61706C0.124035 4.30957 0.38145 4.08434 0.6923 4.04092L3.77968 3.70505L5.28735 0.447376C5.42381 0.172316 5.6997 -0.000976562 6.00115 -0.000976562C6.3026 -0.000976563 6.57849 0.172316 6.71496 0.447376Z" fill="white"/>
</svg>
